<svg version="1.0" xmlns="http://www.w3.org/2000/svg" width="31.92" height="31.92" viewBox="-35.422 -7.96 31.92 31.92"><symbol id="icon-editor-contrast" viewBox="-35.422 -7.96 31.92 31.92"><path fill="currentcolor" d="M-19.462-3.96c6.595 0 11.96 5.365 11.96 11.96s-5.365 11.96-11.96 11.96-11.96-5.365-11.96-11.96 5.365-11.96 11.96-11.96m0-4c-8.814 0-15.96 7.145-15.96 15.96 0 8.813 7.146 15.96 15.96 15.96S-3.502 16.813-3.502 8c0-8.815-7.146-15.96-15.96-15.96z"/><path fill="currentcolor" d="M-19.462 16.331a8.519 8.519 0 0 0 8.52-8.52 8.518 8.518 0 0 0-8.52-8.519"/></symbol><symbol id="icon-editor-crop" viewBox="0 0 48 48"><path fill="none" d="M0 0h48v48H0V0z"/><path fill="currentcolor" d="M34 30h4V14c0-2.21-1.79-4-4-4H18v4h16v16zm-20 4V2h-4v8H2v4h8v20c0 2.21 1.79 4 4 4h20v8h4v-8h8v-4H14z"/></symbol><symbol id="icon-editor-fill" viewBox="0 0 48 48"><path fill="none" d="M0 0h48v48H0V0z"/><path fill="currentcolor" d="M33.12 17.88L15.24 0l-2.83 2.83 4.76 4.76L6.88 17.88a3 3 0 0 0 0 4.24l11 11c.58.59 1.35.88 2.12.88s1.54-.29 2.12-.88l11-11a3 3 0 0 0 0-4.24zM10.41 20L20 10.42 29.59 20H10.41zM38 23s-4 4.33-4 7c0 2.21 1.79 4 4 4s4-1.79 4-4c0-2.67-4-7-4-7zM0 40h48v3H0z"/></symbol><symbol id="icon-editor-diagram-fill" viewBox="22.5 69.048 253 253"><path fill="#d22856" d="M149 69.048c-69.864 0-126.5 56.636-126.5 126.5s56.636 126.5 126.5 126.5 126.5-56.636 126.5-126.5c0-69.863-56.636-126.5-126.5-126.5zm0 237.216c-60.844 0-110.167-49.323-110.167-110.167S88.156 85.93 149 85.93c60.843 0 110.167 49.323 110.167 110.167S209.843 306.264 149 306.264z"/></symbol></svg>