<svg
	version="1.0"
	xmlns="http://www.w3.org/2000/svg"
	xmlns:xlink="http://www.w3.org/1999/xlink"
	x="0px"
	y="0px"
	width="31.92px"
	height="31.92px"
	viewBox="-35.422 -7.96 31.92 31.92"
	enable-background="new -35.422 -7.96 31.92 31.92"
	xml:space="preserve">
	<symbol id="icon-editor-contrast" viewBox="-35.422 -7.96 31.92 31.92">
		<path
			fill="currentcolor"
			d="M-19.462-3.96c6.595,0,11.96,5.365,11.96,11.96s-5.365,11.96-11.96,11.96S-31.422,14.595-31.422,8 S-26.057-3.96-19.462-3.96 M-19.462-7.96c-8.814,0-15.96,7.145-15.96,15.96c0,8.813,7.146,15.96,15.96,15.96S-3.502,16.813-3.502,8 C-3.502-0.815-10.648-7.96-19.462-7.96L-19.462-7.96z"/>

		<path fill="currentcolor" d="M-19.462,16.331c4.706,0,8.52-3.813,8.52-8.52c0-4.705-3.813-8.519-8.52-8.519"/>
	</symbol>

	<symbol id="icon-editor-crop" viewBox="0 0 48 48" width="48" height="48">
		<path fill="none" d="M0,0h48v48H0V0z"/>
		<path fill="currentcolor" d="M34,30h4V14c0-2.21-1.79-4-4-4H18v4h16V30z M14,34V2h-4v8H2v4h8v20c0,2.21,1.79,4,4,4h20v8h4v-8h8v-4H14z"/>
	</symbol>

	<symbol id="icon-editor-fill" viewBox="0 0 48 48">
		<path fill="none" d="M0,0h48v48H0V0z"/>
		<path fill="currentcolor"
			d="M33.12,17.88L15.24,0l-2.83,2.83l4.76,4.76L6.88,17.88c-1.17,1.17-1.17,3.07,0,4.24l11,11C18.46,33.71,19.23,34,20,34 s1.54-0.29,2.12-0.88l11-11C34.29,20.95,34.29,19.05,33.12,17.88z M10.41,20L20,10.42L29.59,20H10.41z M38,23c0,0-4,4.33-4,7 c0,2.21,1.79,4,4,4s4-1.79,4-4C42,27.33,38,23,38,23z"/>
		<rect y="40" width="48" height="3" fill="currentcolor"/>
	</symbol>

	<symbol id="icon-editor-diagram-fill" viewBox="22.5 69.048 253 253">
		<path
			fill="#d22856"
			d="M149,69.048c-69.864,0-126.5,56.636-126.5,126.5c0,69.864,56.636,126.5,126.5,126.5 s126.5-56.636,126.5-126.5C275.5,125.685,218.864,69.048,149,69.048z M149,306.264c-60.844,0-110.167-49.323-110.167-110.167 C38.833,135.253,88.156,85.93,149,85.93c60.843,0,110.167,49.323,110.167,110.167C259.167,256.941,209.843,306.264,149,306.264z"/>
	</symbol>
</svg>
